<?xml version="1.0" standalone="no"?>
<!DOCTYPE svg PUBLIC "-//W3C//DTD SVG 20010904//EN" "http://www.w3.org/TR/2001/REC-SVG-20010904/DTD/svg10.dtd">
<!-- Created using Krita: https://krita.org -->
<svg xmlns="http://www.w3.org/2000/svg" 
    xmlns:xlink="http://www.w3.org/1999/xlink"
    xmlns:krita="http://krita.org/namespaces/svg/krita"
    xmlns:sodipodi="http://sodipodi.sourceforge.net/DTD/sodipodi-0.dtd"
    width="144pt"
    height="144pt"
    viewBox="0 0 144 144">
<defs/>
<path id="shape0" transform="matrix(3 0 0 3 15 15)" fill="#76c578" stroke="#000000" stroke-width="1" stroke-linecap="round" stroke-linejoin="round" d="M36 0L2 0C1.46977 0 0.960715 0.210858 0.585786 0.585786C0.210858 0.960715 0 1.46977 0 2L0 36C0 36.5302 0.210858 37.0393 0.585786 37.4142C0.960715 37.7891 1.46977 38 2 38L36 38C36.5302 38 37.0393 37.7891 37.4142 37.4142C37.7891 37.0393 38 36.5302 38 36L38 2C38 1.46977 37.7891 0.960715 37.4142 0.585786C37.0393 0.210858 36.5302 0 36 0ZM34 17L26.08 17L26.08 13.81C26.3209 13.2389 28.2462 13.0795 26.08 11.92C25.0519 10.3263 24.1947 11.5899 23.7437 11.92L21 11.92L21 4L34 4ZM22.08 15.92L22.08 22.08L15.92 22.08L15.92 15.92ZM17 4L17 11.92L14.0875 11.92C13.9564 10.2015 12.8641 11.1609 11.92 11.92C11.0427 12.2929 10.109 12.6575 11.92 13.42L11.92 17L4 17L4 4ZM32.12 34L4 34L4 21L11.92 21L11.92 26.08L26.08 26.08L26.08 21L34 21L34 32.12C34 32.45 33.9131 32.7742 33.7481 33.06C33.5831 33.3458 33.3458 33.5831 33.06 33.7481C32.7742 33.9131 32.45 34 32.12 34Z" sodipodi:nodetypes="cccccccccccccccccccccccccccccccccccccccccccccccc"/><path id="shape1" transform="matrix(3 0 0 3 86.6457111402076 35.1945780242878)" fill="#76c578" stroke="#000000" stroke-width="1" stroke-linecap="round" stroke-linejoin="round" d="M0.0180963 5.01847C-0.261904 2.69847 2.7281 -0.261526 7.5481 0.018474C7.71022 0.859066 7.6647 1.72666 7.41551 2.54568C7.16632 3.36469 6.72092 4.11062 6.1181 4.71847C3.9281 7.11847 2.2381 6.71847 2.2381 6.71847" sodipodi:nodetypes="ccccc"/><path id="shape2" transform="matrix(3 0 0 3 31.9908595999872 36.5083373332562)" fill="#76c578" stroke="#000000" stroke-width="1" stroke-linecap="round" stroke-linejoin="round" d="M8.38638 4.58055C8.67638 2.26055 5.28638 -1.02945 0.0163801 0.310554C-0.0504361 1.17354 0.0877772 2.04022 0.419702 2.83962C0.751626 3.63902 1.26795 4.3487 1.92638 4.91055C4.20638 7.04055 6.21638 6.26055 6.21638 6.26055" sodipodi:nodetypes="ccccc"/><path id="shape3" transform="matrix(3 0 0 3 64.5 93.24)" fill="none" stroke="#000000" stroke-width="1" stroke-linecap="round" stroke-linejoin="round" d="M2.5 0C2.58 1.37 2.41 5.31 0 5.67" sodipodi:nodetypes="cc"/>
</svg>
